<?xml version="1.0" encoding="utf-8"?>
<!-- Generator: Adobe Illustrator 19.2.1, SVG Export Plug-In . SVG Version: 6.00 Build 0)  -->
<svg version="1.1" id="Layer_1" xmlns="http://www.w3.org/2000/svg" xmlns:xlink="http://www.w3.org/1999/xlink" x="0px" y="0px"
	 width="57.5px" height="40.4px" viewBox="0 0 57.5 40.4" style="enable-background:new 0 0 57.5 40.4;" xml:space="preserve">
<style type="text/css">
	.st0{fill:#FFFFFF;}
</style>
<path class="st0" d="M52.4,31.1V5.6V5c0-1-0.8-1.9-1.9-1.9H28.8h0h-0.5v3.4h0.5h0H49v23H28.8h0H8.6v-23h2.8V3.1H7
	C6,3.1,5.1,3.9,5.1,5v0.6v25.5L0,36.4v2.2c0,0,0,1.9,1.9,1.9h26.9h0h26.9c1.9,0,1.9-1.9,1.9-1.9v-2.2L52.4,31.1z"/>
<path class="st0" d="M41.7,11.9h-6.9c-0.9,0-1.7,0.8-1.7,1.7v6.9c0,0.9,0.8,1.7,1.7,1.7h6.9c0.9,0,1.7-0.8,1.7-1.7v-6.9
	C43.4,12.6,42.6,11.9,41.7,11.9"/>
<path class="st0" d="M26.4,11.1V2.2c0-1.2-1-2.2-2.2-2.2h-8.9c-1.2,0-2.2,1-2.2,2.2v8.9c0,1.2,1,2.2,2.2,2.2h8.9
	C25.4,13.3,26.4,12.3,26.4,11.1"/>
<path class="st0" d="M29.7,22.1H26c-0.5,0-0.9,0.4-0.9,0.9v3.6c0,0.5,0.4,0.9,0.9,0.9h3.6c0.5,0,0.9-0.4,0.9-0.9V23
	C30.5,22.5,30.1,22.1,29.7,22.1"/>
</svg>
