<?xml version="1.0" encoding="utf-8"?>
<!-- Generator: Adobe Illustrator 19.2.1, SVG Export Plug-In . SVG Version: 6.00 Build 0)  -->
<svg version="1.1" id="Layer_1" xmlns="http://www.w3.org/2000/svg" xmlns:xlink="http://www.w3.org/1999/xlink" x="0px" y="0px"
	 width="40px" height="40px" viewBox="0 0 40 40" style="enable-background:new 0 0 40 40;" xml:space="preserve">
<style type="text/css">
	.st0{fill:#7BB63F;}
	.st1{fill:#FFFFFF;}
</style>
<g>
	<g id="Path_91_">
		<g>
			<path class="st0" d="M20,0C9,0,0,9,0,20c0,11,9,20,20,20c11,0,20-9,20-20C40,9,31,0,20,0z"/>
		</g>
	</g>
	<g id="Path_89_">
		<g>
			<path class="st1" d="M33.2,10.4c-1.3-1.1-3.2-0.8-4.3,0.5L18.7,23.8L11.6,18c-1.3-1.1-3.2-0.8-4.3,0.5c-1.1,1.3-0.8,3.3,0.5,4.4
				l9.5,7.7c1.3,1.1,3.2,0.8,4.3-0.5l12.1-15.3C34.7,13.4,34.5,11.5,33.2,10.4z"/>
		</g>
	</g>
</g>
</svg>
