<?xml version="1.0" encoding="utf-8"?>
<!-- Generator: Adobe Illustrator 19.2.1, SVG Export Plug-In . SVG Version: 6.00 Build 0)  -->
<svg version="1.1" id="Layer_1" xmlns="http://www.w3.org/2000/svg" xmlns:xlink="http://www.w3.org/1999/xlink" x="0px" y="0px"
	 width="40px" height="40.1px" viewBox="0 0 40 40.1" style="enable-background:new 0 0 40 40.1;" xml:space="preserve">
<style type="text/css">
	.st0{fill:#FFFFFF;}
	.st1{fill:#DC1431;}
</style>
<g id="Path_xA0_Clipping_Path_15_">
	<g>
		<path class="st0" d="M39.5,34L23.9,2.4C23.2,0.9,21.8,0,20.2,0c-1.5,0-2.9,0.9-3.7,2.3l-16,31.5c-0.7,1.4-0.7,2.9,0.1,4.1
			c0.8,1.2,2.1,2,3.6,2l31.5,0.2c1.5,0,2.9-0.7,3.7-1.9C40.1,36.9,40.2,35.4,39.5,34z"/>
	</g>
</g>
<g id="Path_95_">
	<g>
		<ellipse transform="matrix(6.315209e-03 -1 1 6.315209e-03 -12.4405 52.14)" class="st1" cx="20" cy="32.3" rx="4.1" ry="4.1"/>
	</g>
</g>
<g id="Path_93_">
	<g>
		<path class="st1" d="M20.2,8.7c-1.7,0-3.1,1.4-3.1,3.1L17,23.1c0,1.7,1.4,3.1,3.1,3.1s3.1-1.4,3.1-3.1l0.1-11.3
			C23.2,10.1,21.9,8.7,20.2,8.7z"/>
	</g>
</g>
</svg>
