<?xml version="1.0" encoding="utf-8"?>
<!-- Generator: Adobe Illustrator 19.2.1, SVG Export Plug-In . SVG Version: 6.00 Build 0)  -->
<svg version="1.1" id="Layer_1" xmlns="http://www.w3.org/2000/svg" xmlns:xlink="http://www.w3.org/1999/xlink" x="0px" y="0px"
	 width="43.8px" height="47.1px" viewBox="0 0 43.8 47.1" style="enable-background:new 0 0 43.8 47.1;" xml:space="preserve">
<style type="text/css">
	.st0{fill:#CEC4BB;}
	.st1{fill:#E3183E;}
	.st2{fill:#BC1532;}
</style>
<path class="st0" d="M43.8,25.2c0,12.1-9.8,21.9-21.9,21.9C9.8,47.1,0,37.3,0,25.2C0,13.1,9.8,3.3,21.9,3.3
	C34,3.3,43.8,13.1,43.8,25.2"/>
<path class="st1" d="M20.3,3.3l-0.1-1.9L21.9,0l1.6,1.5l-0.1,1.9c-0.5,0-1-0.1-1.5-0.1C21.3,3.3,20.8,3.3,20.3,3.3"/>
<path class="st2" d="M10.4,33.8l-2.1-0.7l0.5-2.1l10.7-5.4c0-0.1,0-0.2,0-0.4c0-1,0.7-1.9,1.6-2.2L20.3,3.3c0.5,0,1.1-0.1,1.6-0.1
	c0.5,0,1,0,1.5,0.1l-0.7,19.6c0.9,0.3,1.6,1.2,1.6,2.2c0,1.3-1.1,2.4-2.4,2.4c-0.6,0-1.1-0.2-1.5-0.5L10.4,33.8"/>
</svg>
