<?xml version="1.0" encoding="utf-8"?>
<!-- Generator: Adobe Illustrator 19.2.1, SVG Export Plug-In . SVG Version: 6.00 Build 0)  -->
<svg version="1.1" id="Layer_1" xmlns="http://www.w3.org/2000/svg" xmlns:xlink="http://www.w3.org/1999/xlink" x="0px" y="0px"
	 width="45.6px" height="47.1px" viewBox="0 0 45.6 47.1" style="enable-background:new 0 0 45.6 47.1;" xml:space="preserve">
<style type="text/css">
	.st0{fill:#FFFFFF;}
</style>
<path class="st0" d="M22.8,0l1.5,1.4l-0.7,20.7c0.9,0.3,1.5,1.2,1.5,2.2c0,1.3-1,2.3-2.3,2.3c-0.6,0-1.1-0.2-1.4-0.5l-9.6,6.5
	l-2.1-0.7l0.5-2l10.3-5.2c0-0.1,0-0.2,0-0.4c0-1,0.6-1.8,1.5-2.2L21.2,1.4L22.8,0"/>
<path class="st0" d="M25.5,1.6l-0.1,1.7c10.4,1.3,18.4,10.2,18.4,20.9c0,11.6-9.4,21.1-21.1,21.1c-11.6,0-21.1-9.4-21.1-21.1
	c0-10.7,8-19.6,18.4-20.9L20,1.6C8.8,3,0,12.6,0,24.2c0,12.6,10.2,22.8,22.8,22.8s22.8-10.2,22.8-22.8C45.6,12.6,36.8,2.9,25.5,1.6"
	/>
</svg>
